<mxfile host="app.diagrams.net" modified="2024-01-29T15:19:11.851Z" agent="Mozilla/5.0 (Windows NT 10.0; Win64; x64; rv:109.0) Gecko/20100101 Firefox/116.0" version="23.0.2" etag="0T5uf7qX2KdYpJWIGdw4" type="github">
  <diagram name="Page-1" id="kJD_zS_uHZHf3z-IyoWm">
    <mxGraphModel>
      <root>
        <mxCell id="0" />
        <mxCell id="1" parent="0" />
      </root>
    </mxGraphModel>
  </diagram>
</mxfile>
